<?xml version="1.0" encoding="utf-8"?>
<!-- Generator: Adobe Illustrator 22.0.1, SVG Export Plug-In . SVG Version: 6.00 Build 0)  -->
<svg version="1.1" id="Calque_1" xmlns="http://www.w3.org/2000/svg" xmlns:xlink="http://www.w3.org/1999/xlink" x="0px" y="0px"
	 width="88px" height="40px" viewBox="0 0 88 40" style="enable-background:new 0 0 88 40;" xml:space="preserve">
<style type="text/css">
	.st0{fill:#FF3700;}
	.st1{fill:#FFFFFF;}
</style>
<path id="Tracé_41_1_" class="st0" d="M77,38c-2.8,0-5-2.2-5-5s2.2-5,5-5s5,2.2,5,5S79.8,38,77,38 M86.7,22.3L84,19.6L83,12
	c0-2.8-2.2-5-5-5h-7c-0.6,0-1,0.4-1,1s0.4,1,1,1h7c1.7,0,3,1.4,3,3.1l0.9,6.9H71c-0.6,0-1,0.4-1,1s0.4,1,1,1h11.6l2.7,2.7
	c0.5,0.7,0.7,1.5,0.7,2.3v6h-2.1c-0.5-3.4-3.4-6-6.9-6c-3.9,0-7,3.1-7,7s3.1,7,7,7c3.5,0,6.4-2.6,6.9-6H87c0.6,0,1-0.4,1-1v-7
	C88,24.7,87.6,23.3,86.7,22.3"/>
<circle class="st1" cx="13" cy="33" r="5.9"/>
<path id="Tracé_42_1_" class="st0" d="M66,32H19.9c-0.5-3.4-3.4-6-6.9-6V2h53V32z M13,38c-2.8,0-5-2.2-5-5s2.2-5,5-5s5,2.2,5,5
	S15.8,38,13,38 M6.1,32L2,31.9V2h9v24.3C8.4,27.1,6.5,29.3,6.1,32 M67,0H0v8.9l0,0V34h6h0.1c0.5,3.4,3.4,6,6.9,6s6.4-2.6,6.9-6H67
	c0.6,0,1-0.4,1-1V1C68,0.4,67.6,0,67,0"/>
</svg>
