<?xml version="1.0" encoding="utf-8"?>
<!-- Generator: Adobe Illustrator 22.0.1, SVG Export Plug-In . SVG Version: 6.00 Build 0)  -->
<svg version="1.1" id="Calque_1" xmlns="http://www.w3.org/2000/svg" xmlns:xlink="http://www.w3.org/1999/xlink" x="0px" y="0px"
	 width="58.7px" height="26px" viewBox="0 0 58.7 26" style="enable-background:new 0 0 58.7 26;" xml:space="preserve">
<style type="text/css">
	.st0{fill:#FF3700;}
	.st1{fill:#64D277;}
</style>
<path id="Tracé_11_1_" class="st0" d="M51.6,24.7c-1.8,0-3.2-1.5-3.3-3.3c0-1.8,1.5-3.2,3.3-3.3c1.8,0,3.2,1.5,3.3,3.3
	C54.8,23.2,53.4,24.7,51.6,24.7 M51.2,12.3h-3.5c-0.4,0-0.6,0.3-0.6,0.6s0.3,0.6,0.6,0.6h7.5l1.8,1.8c0.3,0.4,0.5,1,0.5,1.5v3.9
	h-1.4c-0.3-2.2-2.2-3.9-4.5-3.9c-2.5,0-4.5,2-4.5,4.6c0,2.5,2,4.5,4.5,4.5c2.3,0,4.2-1.7,4.5-3.9h2c0.4,0,0.7-0.3,0.7-0.6v-4.6
	c0-0.9-0.3-1.7-0.8-2.4l-1.8-1.8l-0.6-4.9c0-1.8-1.5-3.2-3.3-3.3h-4.5c-0.4,0-0.7,0.3-0.7,0.6s0.3,0.6,0.7,0.6h4.5c1.1,0,2,0.9,2,2
	l0.6,4.5h-2.1"/>
<path id="Tracé_12_1_" class="st1" d="M44.4,20.8H14.2l-2.7-2.9l-6.9-0.2L2.5,4.5L2.1,2.6l1.5-2h40.9L44.4,20.8z"/>
<path id="Tracé_13_1_" class="st0" d="M10,24.7c-1.8,0-3.2-1.5-3.3-3.3c0-1.8,1.5-3.2,3.3-3.3c1.8,0,3.2,1.5,3.3,3.3
	C13.2,23.2,11.8,24.7,10,24.7 M45.1,0H4.8C3,0,1.5,1.5,1.5,3.3c0,0,0,0.1,0,0.1l0.6,3.1H0.7C0.3,6.4,0,6.7,0,7.1
	c0,0.4,0.3,0.6,0.6,0.6h9.1c0.4,0,0.6-0.3,0.7-0.6c0,0,0,0,0,0c0-0.4-0.3-0.6-0.7-0.6H3.5L2.8,3.2c0-1.1,0.9-1.9,1.9-1.9h39.7v19.5
	h-30c-0.3-2.2-2.2-3.9-4.5-3.9c0,0-0.1,0-0.1,0c0,0,0,0,0,0H5l-0.3-2c-0.1-0.4-0.4-0.6-0.7-0.5c-0.4,0.1-0.6,0.4-0.5,0.7
	c0,0,0,0,0,0l0.3,1.9h-1c-0.4,0-0.6,0.3-0.6,0.6c0,0.4,0.3,0.6,0.6,0.6h4.1c-0.9,0.9-1.4,2-1.4,3.3c0,2.5,2,4.5,4.6,4.5
	c2.3,0,4.2-1.7,4.5-3.9h30.6c0.4,0,0.6-0.3,0.6-0.6c0,0,0,0,0,0V0.7C45.7,0.3,45.4,0,45.1,0C45.1,0,45.1,0,45.1,0"/>
<path id="Tracé_14_1_" class="st0" d="M10.6,12.4c0-0.4-0.3-0.7-0.6-0.7l0,0H4.5l-0.3-2C4.1,9.3,3.8,9.1,3.5,9.1
	C3.1,9.2,2.9,9.5,2.9,9.8l0.3,1.9h-1c-0.4,0-0.6,0.3-0.6,0.6c0,0.4,0.3,0.7,0.6,0.7H10C10.3,13,10.6,12.7,10.6,12.4
	C10.6,12.4,10.6,12.4,10.6,12.4"/>
</svg>
