<?xml version="1.0" encoding="utf-8"?>
<!-- Generator: Adobe Illustrator 22.0.1, SVG Export Plug-In . SVG Version: 6.00 Build 0)  -->
<svg version="1.1" id="Calque_1" xmlns="http://www.w3.org/2000/svg" xmlns:xlink="http://www.w3.org/1999/xlink" x="0px" y="0px"
	 width="70.4px" height="96px" viewBox="0 0 70.4 96" style="enable-background:new 0 0 70.4 96;" xml:space="preserve">
<style type="text/css">
	.st0{fill:#FF9A7F;}
	.st1{fill:#64D277;}
	.st2{fill:#FF3700;}
	.st3{fill:#FFFFFF;}
</style>
<rect x="10.4" y="65.6" class="st0" width="42.4" height="24"/>
<rect x="10.4" y="33.6" class="st1" width="42.4" height="24"/>
<g>
	<path id="Tracé_41_1_" class="st2" d="M61.6,30.4c-2.2,0-4-1.8-4-4s1.8-4,4-4c2.2,0,4,1.8,4,4S63.8,30.4,61.6,30.4 M69.4,17.8
		l-2.2-2.2l-0.8-6.1c0-2.2-1.8-4-4-4h-5.6c-0.5,0-0.8,0.3-0.8,0.8s0.3,0.8,0.8,0.8h5.6c1.4,0,2.4,1.1,2.4,2.5l0.7,5.5h-8.7
		c-0.5,0-0.8,0.3-0.8,0.8c0,0.5,0.3,0.8,0.8,0.8h9.3l2.2,2.2c0.4,0.6,0.6,1.2,0.6,1.8v4.8h-1.7c-0.4-2.7-2.7-4.8-5.5-4.8
		c-3.1,0-5.6,2.5-5.6,5.6s2.5,5.6,5.6,5.6c2.8,0,5.1-2.1,5.5-4.8h2.5c0.5,0,0.8-0.3,0.8-0.8v-5.6C70.4,19.8,70.1,18.6,69.4,17.8"/>
	<circle class="st3" cx="10.4" cy="26.4" r="4.7"/>
	<path id="Tracé_42_1_" class="st2" d="M52.8,25.6H15.9c-0.4-2.7-2.7-4.8-5.5-4.8V1.6h42.4V25.6z M10.4,30.4c-2.2,0-4-1.8-4-4
		s1.8-4,4-4s4,1.8,4,4S12.6,30.4,10.4,30.4 M4.9,25.6l-3.3-0.1V1.6h7.2V21C6.7,21.7,5.2,23.4,4.9,25.6 M53.6,0H0v7.1l0,0v20.1h4.8
		h0.1c0.4,2.7,2.7,4.8,5.5,4.8s5.1-2.1,5.5-4.8h37.7c0.5,0,0.8-0.3,0.8-0.8V0.8C54.4,0.3,54.1,0,53.6,0"/>
</g>
<g>
	<path id="Tracé_41_2_" class="st2" d="M61.6,62.4c-2.2,0-4-1.8-4-4c0-2.2,1.8-4,4-4c2.2,0,4,1.8,4,4
		C65.6,60.6,63.8,62.4,61.6,62.4 M69.4,49.8l-2.2-2.2l-0.8-6.1c0-2.2-1.8-4-4-4h-5.6c-0.5,0-0.8,0.3-0.8,0.8c0,0.5,0.3,0.8,0.8,0.8
		h5.6c1.4,0,2.4,1.1,2.4,2.5l0.7,5.5h-8.7c-0.5,0-0.8,0.3-0.8,0.8s0.3,0.8,0.8,0.8h9.3l2.2,2.2c0.4,0.6,0.6,1.2,0.6,1.8v4.8h-1.7
		c-0.4-2.7-2.7-4.8-5.5-4.8c-3.1,0-5.6,2.5-5.6,5.6c0,3.1,2.5,5.6,5.6,5.6c2.8,0,5.1-2.1,5.5-4.8h2.5c0.5,0,0.8-0.3,0.8-0.8v-5.6
		C70.4,51.8,70.1,50.6,69.4,49.8"/>
	<circle class="st3" cx="10.4" cy="58.4" r="4.7"/>
	<path id="Tracé_42_2_" class="st2" d="M52.8,57.6H15.9c-0.4-2.7-2.7-4.8-5.5-4.8V33.6h42.4V57.6z M10.4,62.4c-2.2,0-4-1.8-4-4
		c0-2.2,1.8-4,4-4s4,1.8,4,4C14.4,60.6,12.6,62.4,10.4,62.4 M4.9,57.6l-3.3-0.1V33.6h7.2V53C6.7,53.7,5.2,55.4,4.9,57.6 M53.6,32H0
		v7.1l0,0v20.1h4.8h0.1c0.4,2.7,2.7,4.8,5.5,4.8s5.1-2.1,5.5-4.8h37.7c0.5,0,0.8-0.3,0.8-0.8V32.8C54.4,32.3,54.1,32,53.6,32"/>
</g>
<g>
	<path id="Tracé_41_3_" class="st2" d="M61.6,94.4c-2.2,0-4-1.8-4-4c0-2.2,1.8-4,4-4c2.2,0,4,1.8,4,4
		C65.6,92.6,63.8,94.4,61.6,94.4 M69.4,81.8l-2.2-2.2l-0.8-6.1c0-2.2-1.8-4-4-4h-5.6c-0.5,0-0.8,0.3-0.8,0.8c0,0.5,0.3,0.8,0.8,0.8
		h5.6c1.4,0,2.4,1.1,2.4,2.5l0.7,5.5h-8.7c-0.5,0-0.8,0.3-0.8,0.8s0.3,0.8,0.8,0.8h9.3l2.2,2.2c0.4,0.6,0.6,1.2,0.6,1.8v4.8h-1.7
		c-0.4-2.7-2.7-4.8-5.5-4.8c-3.1,0-5.6,2.5-5.6,5.6s2.5,5.6,5.6,5.6c2.8,0,5.1-2.1,5.5-4.8h2.5c0.5,0,0.8-0.3,0.8-0.8v-5.6
		C70.4,83.8,70.1,82.6,69.4,81.8"/>
	<circle class="st3" cx="10.4" cy="90.4" r="4.7"/>
	<path id="Tracé_42_3_" class="st2" d="M52.8,89.6H15.9c-0.4-2.7-2.7-4.8-5.5-4.8V65.6h42.4V89.6z M10.4,94.4c-2.2,0-4-1.8-4-4
		c0-2.2,1.8-4,4-4s4,1.8,4,4C14.4,92.6,12.6,94.4,10.4,94.4 M4.9,89.6l-3.3-0.1V65.6h7.2V85C6.7,85.7,5.2,87.4,4.9,89.6 M53.6,64H0
		v7.1l0,0v20.1h4.8h0.1c0.4,2.7,2.7,4.8,5.5,4.8s5.1-2.1,5.5-4.8h37.7c0.5,0,0.8-0.3,0.8-0.8V64.8C54.4,64.3,54.1,64,53.6,64"/>
</g>
</svg>
