<?xml version="1.0" encoding="utf-8"?>
<!-- Generator: Adobe Illustrator 22.0.1, SVG Export Plug-In . SVG Version: 6.00 Build 0)  -->
<svg version="1.1" id="Calque_1" xmlns="http://www.w3.org/2000/svg" xmlns:xlink="http://www.w3.org/1999/xlink" x="0px" y="0px"
	 width="512px" height="512px" viewBox="0 0 512 512" style="enable-background:new 0 0 512 512;" xml:space="preserve">
<path id="Tracé_48" d="M291.3,79.4c0,4.9-4,8.8-8.8,8.8h-88.3c-4.9,0-8.8-4-8.8-8.8c0-4.9,4-8.8,8.8-8.8h88.3
	C287.4,70.6,291.3,74.6,291.3,79.4L291.3,79.4z M282.5,123.6h-88.3c-4.9,0-8.8,4-8.8,8.8c0,4.9,4,8.8,8.8,8.8h88.3
	c4.9,0,8.8-3.9,8.8-8.8C291.3,127.5,287.4,123.6,282.5,123.6C282.5,123.6,282.5,123.6,282.5,123.6z M362,229.5v53
	c0,9.8-7.9,17.6-17.7,17.6c0,0,0,0,0,0H132.4c-9.8,0-17.7-7.9-17.7-17.7v-52.9c0-9.8,7.9-17.7,17.7-17.7h211.9
	C354,211.8,361.9,219.7,362,229.5C362,229.5,362,229.5,362,229.5z M344.3,234.5c0-2.7-2.2-5-5-5h-202c-2.7,0-5,2.2-5,5v43
	c0,2.7,2.2,5,5,5h201.9c2.7,0,5-2.2,5-5v0L344.3,234.5z M185.4,335.5v35.3c0,9.8-7.9,17.7-17.7,17.7h-35.3
	c-9.8,0-17.7-7.9-17.7-17.7v-35.3c0-9.8,7.9-17.7,17.7-17.7h35.3C177.5,317.8,185.4,325.7,185.4,335.5
	C185.4,335.5,185.4,335.5,185.4,335.5z M167.7,340.4c0-2.7-2.2-5-5-5h-25.4c-2.7,0-5,2.2-5,5v25.4c0,2.7,2.2,5,5,5h25.4
	c2.7,0,5-2.2,5-5V340.4z M273.6,335.5v35.3c0,9.8-7.9,17.7-17.7,17.7h-35.3c-9.8,0-17.7-7.9-17.7-17.7v-35.3
	c0-9.8,7.9-17.7,17.7-17.7H256C265.7,317.8,273.6,325.7,273.6,335.5z M256,340.4c0-2.7-2.2-5-5-5h-25.4c-2.7,0-5,2.2-5,5v25.4
	c0,2.7,2.2,5,5,5H251c2.7,0,5-2.2,5-5L256,340.4z M361.9,335.5v35.3c0,9.8-7.9,17.7-17.7,17.7H309c-9.8,0-17.7-7.9-17.7-17.7v-35.3
	c0-9.8,7.9-17.7,17.7-17.7h35.3C354,317.8,361.9,325.7,361.9,335.5C362,335.4,362,335.4,361.9,335.5L361.9,335.5z M344.3,340.4
	c0-2.7-2.2-5-5-5h-25.4c-2.7,0-5,2.2-5,5v25.4c0,2.7,2.2,5,5,5h25.4c2.7,0,5-2.2,5-5c0,0,0,0,0,0V340.4z M185.4,423.7V459
	c0,9.8-7.9,17.7-17.7,17.7h-35.3c-9.8,0-17.7-7.9-17.7-17.7v-35.3c0-9.8,7.9-17.7,17.7-17.7h35.3C177.5,406.1,185.4,414,185.4,423.7
	C185.4,423.7,185.4,423.7,185.4,423.7z M167.7,428.7c0-2.7-2.2-5-5-5h-25.4c-2.7,0-5,2.2-5,5v25.4c0,2.7,2.2,5,5,5h25.4
	c2.7,0,5-2.2,5-5V428.7z M273.6,423.7V459c0,9.8-7.9,17.7-17.7,17.7h-35.3c-9.8,0-17.7-7.9-17.7-17.7v-35.3
	c0-9.8,7.9-17.7,17.7-17.7H256C265.7,406.1,273.6,414,273.6,423.7z M256,428.7c0-2.7-2.2-5-5-5h-25.4c-2.7,0-5,2.2-5,5v25.4
	c0,2.7,2.2,5,5,5H251c2.7,0,5-2.2,5-5L256,428.7z M361.9,423.7V459c0,9.8-7.9,17.7-17.7,17.7H309c-9.8,0-17.7-7.9-17.7-17.7v-35.3
	c0-9.8,7.9-17.7,17.7-17.7h35.3C354,406,361.9,413.9,361.9,423.7C362,423.7,362,423.7,361.9,423.7L361.9,423.7z M344.3,428.7
	c0-2.7-2.2-5-5-5h-25.4c-2.7,0-5,2.2-5,5v25.4c0,2.7,2.2,5,5,5h25.4c2.7,0,5-2.2,5-5c0,0,0,0,0,0V428.7z M450.2,61.8v21.5
	c0,12.5-10.1,22.6-22.6,22.6c0,0,0,0,0,0h-83.3v35.3h26.5c24.3,0,44.1,19.7,44.1,44c0,0,0,0.1,0,0.1v282.5c0,24.3-19.7,44.1-44,44.1
	c0,0-0.1,0-0.1,0H105.9c-24.3,0-44.1-19.7-44.1-44c0,0,0-0.1,0-0.1V185.4c0-24.3,19.7-44.1,44-44.1c0,0,0.1,0,0.1,0h26.5V61.8
	c0-34.1,27.7-61.7,61.8-61.8h194.2C422.5,0,450.2,27.7,450.2,61.8L450.2,61.8z M344.3,158.9v17.7h8.8c4.9,0,8.8,4,8.8,8.8
	c0,4.9-4,8.8-8.8,8.8H123.6c-4.9,0-8.8-3.9-8.8-8.8c0-4.9,3.9-8.8,8.8-8.8c0,0,0,0,0,0h8.8v-17.7h-26.5c-14.6,0-26.5,11.8-26.5,26.5
	v0v282.5c0,14.6,11.9,26.5,26.5,26.5h264.9c14.6,0,26.5-11.9,26.5-26.5V185.4c0-14.6-11.9-26.5-26.5-26.5H344.3z M345.3,17.6H194.2
	c-24.3,0-44.1,19.7-44.1,44c0,0,0,0.1,0,0.1v114.8h176.5V61.8C326.6,45.2,333.4,29.2,345.3,17.6L345.3,17.6z M432.5,61.7
	c0-24.4-19.7-44.2-44.1-44.2c-24.4,0-44.2,19.7-44.2,44.1c0,0,0,0,0,0.1v26.5h80.1c4.5,0,8.1-3.6,8.1-8.1L432.5,61.7z"/>
</svg>
