<?xml version="1.0" encoding="utf-8"?>
<!-- Generator: Adobe Illustrator 22.0.1, SVG Export Plug-In . SVG Version: 6.00 Build 0)  -->
<svg version="1.1" id="Calque_1" xmlns="http://www.w3.org/2000/svg" xmlns:xlink="http://www.w3.org/1999/xlink" x="0px" y="0px"
	 width="512px" height="512px" viewBox="0 0 512 512" style="enable-background:new 0 0 512 512;" xml:space="preserve">
<path id="Tracé_41" d="M448,360.7c-16.1,0-29.1-13-29.1-29.1c0-16.1,13-29.1,29.1-29.1c16.1,0,29.1,13,29.1,29.1
	C477.1,347.7,464.1,360.7,448,360.7 M504.5,269.3l-15.9-15.9l-5.6-43.9c0-16.1-13-29.1-29.1-29.1h-40.7c-3.2,0-5.8,2.6-5.8,5.8
	c0,3.2,2.6,5.8,5.8,5.8h40.7c9.7,0.2,17.5,8.2,17.5,17.9l5.3,40.2h-63.5c-3.2,0-5.8,2.6-5.8,5.8c0,3.2,2.6,5.8,5.8,5.8h67.4
	l15.7,15.7c2.7,3.9,4.2,8.6,4.1,13.3v34.9h-12.1c-2.9-20-20-34.9-40.3-34.9c-22.5,0-40.7,18.2-40.7,40.7c0,22.5,18.2,40.7,40.7,40.7
	c20.2,0,37.4-14.9,40.3-34.9h17.9c3.2,0,5.8-2.6,5.8-5.8v-40.7C512.1,283.1,509.4,275.4,504.5,269.3"/>
<path id="Tracé_42" d="M384,325.8H115.9c-2.9-20-20-34.9-40.2-34.9V151.3H384V325.8z M75.6,360.7c-16.1,0-29.1-13-29.1-29.1
	c0-16.1,13-29.1,29.1-29.1c16.1,0,29.1,13,29.1,29.1C104.7,347.7,91.7,360.7,75.6,360.7 M35.4,325.9l-23.7-0.5V151.3h52.2v141.4
	C48.7,297.3,37.6,310.2,35.4,325.9 M389.8,139.6H0v51.6h0.1L0,337.5h34.9c0.2,0,0.3-0.1,0.5-0.1c2.8,20.1,20,35,40.3,35
	c20.2,0,37.4-14.9,40.3-34.9h273.9c3.2,0,5.8-2.6,5.8-5.8V145.5C395.6,142.2,393,139.6,389.8,139.6"/>
</svg>
