<?xml version="1.0" encoding="utf-8"?>
<!-- Generator: Adobe Illustrator 22.0.1, SVG Export Plug-In . SVG Version: 6.00 Build 0)  -->
<svg version="1.1" id="Calque_1" xmlns="http://www.w3.org/2000/svg" xmlns:xlink="http://www.w3.org/1999/xlink" x="0px" y="0px"
	 width="512px" height="512px" viewBox="0 0 512 512" style="enable-background:new 0 0 512 512;" xml:space="preserve">
<path d="M255.9,512l-12.1-23.5c-14-27.3-137.2-269-137.2-338.3c-0.1-39.9,15.3-77.6,43.5-106C178.3,15.8,215.9,0.1,255.9,0h0.1
	c82.5,0.3,149.5,67.7,149.2,150.2c0,69.2-123.1,310.9-137.2,338.2L255.9,512z M255.9,27.2c-67.6,0.3-122.3,55.4-122.1,123
	c0,48.1,79.4,216.6,122.1,302c42.7-85.4,122.1-254,122.1-302C378.2,82.6,323.5,27.4,255.9,27.2z M255.9,244L255.9,244
	c-56.2-0.2-101.7-46.1-101.5-102.2c-0.2-56,45.3-101.9,101.5-102.1c56.2,0.2,101.8,46,101.6,102.2
	C357.6,197.9,312.1,243.8,255.9,244L255.9,244z M255.9,66.9c-41,0.1-74.4,33.7-74.3,74.9c-0.1,41.2,33.2,74.8,74.3,75
	c19.9-0.1,38.6-7.9,52.7-22.1c14-14.1,21.7-32.9,21.7-52.9C330.4,100.6,297,67,255.9,66.9z"/>
</svg>
