<?xml version="1.0" encoding="utf-8"?>
<!-- Generator: Adobe Illustrator 22.0.1, SVG Export Plug-In . SVG Version: 6.00 Build 0)  -->
<svg version="1.1" id="Calque_1" xmlns="http://www.w3.org/2000/svg" xmlns:xlink="http://www.w3.org/1999/xlink" x="0px" y="0px"
	 width="512px" height="512px" viewBox="0 0 512 512" style="enable-background:new 0 0 512 512;" xml:space="preserve">
<path d="M257,1L257,1c-40.1,0.1-77.6,15.8-105.8,44.2c-28.2,28.4-43.6,66-43.5,106c0,69.2,123.1,310.9,137.2,338.3l12.1,23.5
	l12.1-23.5c14-27.3,137.2-269,137.2-338.2C406.5,68.7,339.5,1.3,257,1z M257,245L257,245h-0.1c-56.1-0.2-101.7-46.1-101.5-102.2
	c-0.2-56,45.3-101.9,101.5-102.1c56.2,0.2,101.8,46,101.6,102.2C358.6,198.9,313.1,244.8,257,245z"/>
</svg>
