<?xml version="1.0" encoding="utf-8"?>
<!-- Generator: Adobe Illustrator 22.0.1, SVG Export Plug-In . SVG Version: 6.00 Build 0)  -->
<svg version="1.1" id="Calque_1" xmlns="http://www.w3.org/2000/svg" xmlns:xlink="http://www.w3.org/1999/xlink" x="0px" y="0px"
	 width="512px" height="512px" viewBox="0 0 512 512" style="enable-background:new 0 0 512 512;" xml:space="preserve">
<path id="Tracé_72" d="M39.3,182.4c0-80.6,65.3-145.9,145.9-145.9c0,0,0,0,0,0c80.6,0,145.9,65.3,145.9,145.9
	s-65.3,145.9-145.9,145.9l0,0C104.6,328.3,39.3,263,39.3,182.4L39.3,182.4 M509.6,463.7L333.4,287.5c21.9-30.7,33.6-67.4,33.5-105.1
	C367,82,285.6,0.7,185.2,0.7c0,0,0,0,0,0C84.8,0.7,3.5,82,3.5,182.4l0,0c0,100.4,81.4,181.8,181.8,181.8c0,0,0,0,0,0
	c34.8,0,68.9-10,98.1-28.8l177.3,177.3L509.6,463.7z"/>
</svg>
