<svg id="Calque_1" xmlns="http://www.w3.org/2000/svg" width="70.4" height="96"><style>.st2{fill:#ff3700}.st3{fill:#fff}</style><path fill="#ff9a7f" d="M10.4 65.6h42.4v24H10.4z"/><path fill="#64d277" d="M10.4 33.6h42.4v24H10.4z"/><path id="Tracé_41_1_" class="st2" d="M61.6 30.4c-2.2 0-4-1.8-4-4s1.8-4 4-4 4 1.8 4 4-1.8 4-4 4m7.8-12.6l-2.2-2.2-.8-6.1c0-2.2-1.8-4-4-4h-5.6c-.5 0-.8.3-.8.8s.3.8.8.8h5.6c1.4 0 2.4 1.1 2.4 2.5l.7 5.5h-8.7c-.5 0-.8.3-.8.8s.3.8.8.8h9.3l2.2 2.2c.4.6.6 1.2.6 1.8v4.8h-1.7c-.4-2.7-2.7-4.8-5.5-4.8-3.1 0-5.6 2.5-5.6 5.6s2.5 5.6 5.6 5.6c2.8 0 5.1-2.1 5.5-4.8h2.5c.5 0 .8-.3.8-.8v-5.6c-.1-.9-.4-2.1-1.1-2.9"/><circle class="st3" cx="10.4" cy="26.4" r="4.7"/><path id="Tracé_42_1_" class="st2" d="M52.8 25.6H15.9c-.4-2.7-2.7-4.8-5.5-4.8V1.6h42.4v24zm-42.4 4.8c-2.2 0-4-1.8-4-4s1.8-4 4-4 4 1.8 4 4-1.8 4-4 4m-5.5-4.8l-3.3-.1V1.6h7.2V21c-2.1.7-3.6 2.4-3.9 4.6M53.6 0H0v27.2h4.9c.4 2.7 2.7 4.8 5.5 4.8s5.1-2.1 5.5-4.8h37.7c.5 0 .8-.3.8-.8V.8c0-.5-.3-.8-.8-.8"/><path id="Tracé_41_2_" class="st2" d="M61.6 62.4c-2.2 0-4-1.8-4-4s1.8-4 4-4 4 1.8 4 4-1.8 4-4 4m7.8-12.6l-2.2-2.2-.8-6.1c0-2.2-1.8-4-4-4h-5.6c-.5 0-.8.3-.8.8s.3.8.8.8h5.6c1.4 0 2.4 1.1 2.4 2.5l.7 5.5h-8.7c-.5 0-.8.3-.8.8s.3.8.8.8h9.3l2.2 2.2c.4.6.6 1.2.6 1.8v4.8h-1.7c-.4-2.7-2.7-4.8-5.5-4.8-3.1 0-5.6 2.5-5.6 5.6 0 3.1 2.5 5.6 5.6 5.6 2.8 0 5.1-2.1 5.5-4.8h2.5c.5 0 .8-.3.8-.8v-5.6c-.1-.9-.4-2.1-1.1-2.9"/><circle class="st3" cx="10.4" cy="58.4" r="4.7"/><path id="Tracé_42_2_" class="st2" d="M52.8 57.6H15.9c-.4-2.7-2.7-4.8-5.5-4.8V33.6h42.4v24zm-42.4 4.8c-2.2 0-4-1.8-4-4s1.8-4 4-4 4 1.8 4 4-1.8 4-4 4m-5.5-4.8l-3.3-.1V33.6h7.2V53c-2.1.7-3.6 2.4-3.9 4.6M53.6 32H0v27.2h4.9c.4 2.7 2.7 4.8 5.5 4.8s5.1-2.1 5.5-4.8h37.7c.5 0 .8-.3.8-.8V32.8c0-.5-.3-.8-.8-.8"/><path id="Tracé_41_3_" class="st2" d="M61.6 94.4c-2.2 0-4-1.8-4-4s1.8-4 4-4 4 1.8 4 4-1.8 4-4 4m7.8-12.6l-2.2-2.2-.8-6.1c0-2.2-1.8-4-4-4h-5.6c-.5 0-.8.3-.8.8s.3.8.8.8h5.6c1.4 0 2.4 1.1 2.4 2.5l.7 5.5h-8.7c-.5 0-.8.3-.8.8s.3.8.8.8h9.3l2.2 2.2c.4.6.6 1.2.6 1.8v4.8h-1.7c-.4-2.7-2.7-4.8-5.5-4.8-3.1 0-5.6 2.5-5.6 5.6s2.5 5.6 5.6 5.6c2.8 0 5.1-2.1 5.5-4.8h2.5c.5 0 .8-.3.8-.8v-5.6c-.1-.9-.4-2.1-1.1-2.9"/><circle class="st3" cx="10.4" cy="90.4" r="4.7"/><path id="Tracé_42_3_" class="st2" d="M52.8 89.6H15.9c-.4-2.7-2.7-4.8-5.5-4.8V65.6h42.4v24zm-42.4 4.8c-2.2 0-4-1.8-4-4s1.8-4 4-4 4 1.8 4 4-1.8 4-4 4m-5.5-4.8l-3.3-.1V65.6h7.2V85c-2.1.7-3.6 2.4-3.9 4.6M53.6 64H0v27.2h4.9c.4 2.7 2.7 4.8 5.5 4.8s5.1-2.1 5.5-4.8h37.7c.5 0 .8-.3.8-.8V64.8c0-.5-.3-.8-.8-.8"/></svg>