<svg id="Calque_1" xmlns="http://www.w3.org/2000/svg" width="88" height="40"><style>.st0{fill:#ff3700}</style><path id="Tracé_41_1_" class="st0" d="M77 38c-2.8 0-5-2.2-5-5s2.2-5 5-5 5 2.2 5 5-2.2 5-5 5m9.7-15.7L84 19.6 83 12c0-2.8-2.2-5-5-5h-7c-.6 0-1 .4-1 1s.4 1 1 1h7c1.7 0 3 1.4 3 3.1l.9 6.9H71c-.6 0-1 .4-1 1s.4 1 1 1h11.6l2.7 2.7c.5.7.7 1.5.7 2.3v6h-2.1c-.5-3.4-3.4-6-6.9-6-3.9 0-7 3.1-7 7s3.1 7 7 7c3.5 0 6.4-2.6 6.9-6H87c.6 0 1-.4 1-1v-7c0-1.3-.4-2.7-1.3-3.7"/><circle cx="13" cy="33" r="5.9" fill="#fff"/><path id="Tracé_42_1_" class="st0" d="M66 32H19.9c-.5-3.4-3.4-6-6.9-6V2h53v30zm-53 6c-2.8 0-5-2.2-5-5s2.2-5 5-5 5 2.2 5 5-2.2 5-5 5m-6.9-6L2 31.9V2h9v24.3c-2.6.8-4.5 3-4.9 5.7M67 0H0v34h6.1c.5 3.4 3.4 6 6.9 6s6.4-2.6 6.9-6H67c.6 0 1-.4 1-1V1c0-.6-.4-1-1-1"/></svg>