<svg id="Calque_1" xmlns="http://www.w3.org/2000/svg" width="58.7" height="26"><style>.st0{fill:#ff3700}</style><path id="Tracé_11_1_" class="st0" d="M51.6 24.7c-1.8 0-3.2-1.5-3.3-3.3 0-1.8 1.5-3.2 3.3-3.3 1.8 0 3.2 1.5 3.3 3.3-.1 1.8-1.5 3.3-3.3 3.3m-.4-12.4h-3.5c-.4 0-.6.3-.6.6s.3.6.6.6h7.5l1.8 1.8c.3.4.5 1 .5 1.5v3.9h-1.4c-.3-2.2-2.2-3.9-4.5-3.9-2.5 0-4.5 2-4.5 4.6 0 2.5 2 4.5 4.5 4.5 2.3 0 4.2-1.7 4.5-3.9h2c.4 0 .7-.3.7-.6v-4.6c0-.9-.3-1.7-.8-2.4l-1.8-1.8-.6-4.9c0-1.8-1.5-3.2-3.3-3.3h-4.5c-.4 0-.7.3-.7.6s.3.6.7.6h4.5c1.1 0 2 .9 2 2l.6 4.5h-2.1"/><path id="Tracé_12_1_" d="M44.4 20.8H14.2l-2.7-2.9-6.9-.2L2.5 4.5l-.4-1.9 1.5-2h40.9l-.1 20.2z" fill="#64d277"/><path id="Tracé_13_1_" class="st0" d="M10 24.7c-1.8 0-3.2-1.5-3.3-3.3 0-1.8 1.5-3.2 3.3-3.3 1.8 0 3.2 1.5 3.3 3.3-.1 1.8-1.5 3.3-3.3 3.3M45.1 0H4.8C3 0 1.5 1.5 1.5 3.3v.1l.6 3.1H.7c-.4-.1-.7.2-.7.6 0 .4.3.6.6.6h9.1c.4 0 .6-.3.7-.6 0-.4-.3-.6-.7-.6H3.5l-.7-3.3c0-1.1.9-1.9 1.9-1.9h39.7v19.5h-30c-.3-2.2-2.2-3.9-4.5-3.9H5l-.3-2c-.1-.4-.4-.6-.7-.5-.4.1-.6.4-.5.7l.3 1.9h-1c-.4 0-.6.3-.6.6 0 .4.3.6.6.6h4.1c-.9.9-1.4 2-1.4 3.3 0 2.5 2 4.5 4.6 4.5 2.3 0 4.2-1.7 4.5-3.9h30.6c.4 0 .6-.3.6-.6V.7c-.1-.4-.4-.7-.7-.7"/><path id="Tracé_14_1_" class="st0" d="M10.6 12.4c0-.4-.3-.7-.6-.7H4.5l-.3-2c-.1-.4-.4-.6-.7-.6-.4.1-.6.4-.6.7l.3 1.9h-1c-.4 0-.6.3-.6.6 0 .4.3.7.6.7H10c.3 0 .6-.3.6-.6"/></svg>